<svg id="visual" viewBox="0 0 900 200" width="900" height="200" xmlns="http://www.w3.org/2000/svg" xmlns:xlink="http://www.w3.org/1999/xlink" version="1.1"><rect x="0" y="0" width="900" height="200" fill="#001220"></rect><path d="M0 61L15 65.3C30 69.7 60 78.3 90 77.5C120 76.7 150 66.3 180 66.7C210 67 240 78 270 81.3C300 84.7 330 80.3 360 74.7C390 69 420 62 450 66.7C480 71.3 510 87.7 540 88.3C570 89 600 74 630 74.2C660 74.3 690 89.7 720 90C750 90.3 780 75.7 810 72.2C840 68.7 870 76.3 885 80.2L900 84L900 201L885 201C870 201 840 201 810 201C780 201 750 201 720 201C690 201 660 201 630 201C600 201 570 201 540 201C510 201 480 201 450 201C420 201 390 201 360 201C330 201 300 201 270 201C240 201 210 201 180 201C150 201 120 201 90 201C60 201 30 201 15 201L0 201Z" fill="#fa7268"></path><path d="M0 127L15 123.2C30 119.3 60 111.7 90 104.8C120 98 150 92 180 90.7C210 89.3 240 92.7 270 93.3C300 94 330 92 360 92.8C390 93.7 420 97.3 450 101.2C480 105 510 109 540 112.2C570 115.3 600 117.7 630 113.5C660 109.3 690 98.7 720 91.7C750 84.7 780 81.3 810 81.5C840 81.7 870 85.3 885 87.2L900 89L900 201L885 201C870 201 840 201 810 201C780 201 750 201 720 201C690 201 660 201 630 201C600 201 570 201 540 201C510 201 480 201 450 201C420 201 390 201 360 201C330 201 300 201 270 201C240 201 210 201 180 201C150 201 120 201 90 201C60 201 30 201 15 201L0 201Z" fill="#d1843a"></path><path d="M0 144L15 139.2C30 134.3 60 124.7 90 118.3C120 112 150 109 180 112.7C210 116.3 240 126.7 270 132.7C300 138.7 330 140.3 360 135.3C390 130.3 420 118.7 450 118.7C480 118.7 510 130.3 540 136.7C570 143 600 144 630 143.8C660 143.7 690 142.3 720 137C750 131.7 780 122.3 810 119.2C840 116 870 119 885 120.5L900 122L900 201L885 201C870 201 840 201 810 201C780 201 750 201 720 201C690 201 660 201 630 201C600 201 570 201 540 201C510 201 480 201 450 201C420 201 390 201 360 201C330 201 300 201 270 201C240 201 210 201 180 201C150 201 120 201 90 201C60 201 30 201 15 201L0 201Z" fill="#9a9230"></path><path d="M0 164L15 163.7C30 163.3 60 162.7 90 162.2C120 161.7 150 161.3 180 156.8C210 152.3 240 143.7 270 139.8C300 136 330 137 360 140.7C390 144.3 420 150.7 450 154C480 157.3 510 157.7 540 154C570 150.3 600 142.7 630 138.5C660 134.3 690 133.7 720 133.7C750 133.7 780 134.3 810 138.7C840 143 870 151 885 155L900 159L900 201L885 201C870 201 840 201 810 201C780 201 750 201 720 201C690 201 660 201 630 201C600 201 570 201 540 201C510 201 480 201 450 201C420 201 390 201 360 201C330 201 300 201 270 201C240 201 210 201 180 201C150 201 120 201 90 201C60 201 30 201 15 201L0 201Z" fill="#5f974c"></path><path d="M0 181L15 181.2C30 181.3 60 181.7 90 180.5C120 179.3 150 176.7 180 172.5C210 168.3 240 162.7 270 161.5C300 160.3 330 163.7 360 165.2C390 166.7 420 166.3 450 165.5C480 164.7 510 163.3 540 165.8C570 168.3 600 174.7 630 176.2C660 177.7 690 174.3 720 170.2C750 166 780 161 810 161.7C840 162.3 870 168.7 885 171.8L900 175L900 201L885 201C870 201 840 201 810 201C780 201 750 201 720 201C690 201 660 201 630 201C600 201 570 201 540 201C510 201 480 201 450 201C420 201 390 201 360 201C330 201 300 201 270 201C240 201 210 201 180 201C150 201 120 201 90 201C60 201 30 201 15 201L0 201Z" fill="#009473"></path></svg>