<svg id="visual" viewBox="0 0 960 100" width="960" height="100" xmlns="http://www.w3.org/2000/svg" xmlns:xlink="http://www.w3.org/1999/xlink" version="1.1"><path d="M0 2L7 11.5C14 21 28 40 41.8 39.8C55.7 39.7 69.3 20.3 83.2 17.5C97 14.7 111 28.3 125 34.8C139 41.3 153 40.7 167 40.5C181 40.3 195 40.7 208.8 45C222.7 49.3 236.3 57.7 250.2 56.3C264 55 278 44 292 35.8C306 27.7 320 22.3 334 27C348 31.7 362 46.3 375.8 48.8C389.7 51.3 403.3 41.7 417.2 42C431 42.3 445 52.7 459 52.8C473 53 487 43 501 41.2C515 39.3 529 45.7 542.8 49.3C556.7 53 570.3 54 584.2 55C598 56 612 57 626 58.5C640 60 654 62 668 64.3C682 66.7 696 69.3 709.8 70.2C723.7 71 737.3 70 751.2 58C765 46 779 23 793 19.7C807 16.3 821 32.7 835 38C849 43.3 863 37.7 876.8 38.5C890.7 39.3 904.3 46.7 918.2 50.5C932 54.3 946 54.7 953 54.8L960 55L960 101L953 101C946 101 932 101 918.2 101C904.3 101 890.7 101 876.8 101C863 101 849 101 835 101C821 101 807 101 793 101C779 101 765 101 751.2 101C737.3 101 723.7 101 709.8 101C696 101 682 101 668 101C654 101 640 101 626 101C612 101 598 101 584.2 101C570.3 101 556.7 101 542.8 101C529 101 515 101 501 101C487 101 473 101 459 101C445 101 431 101 417.2 101C403.3 101 389.7 101 375.8 101C362 101 348 101 334 101C320 101 306 101 292 101C278 101 264 101 250.2 101C236.3 101 222.7 101 208.8 101C195 101 181 101 167 101C153 101 139 101 125 101C111 101 97 101 83.2 101C69.3 101 55.7 101 41.8 101C28 101 14 101 7 101L0 101Z" fill="#fcaf3c"></path><path d="M0 74L7 71.2C14 68.3 28 62.7 41.8 57C55.7 51.3 69.3 45.7 83.2 43.7C97 41.7 111 43.3 125 44C139 44.7 153 44.3 167 42.8C181 41.3 195 38.7 208.8 36C222.7 33.3 236.3 30.7 250.2 32.3C264 34 278 40 292 42C306 44 320 42 334 37.2C348 32.3 362 24.7 375.8 29C389.7 33.3 403.3 49.7 417.2 56.3C431 63 445 60 459 51.7C473 43.3 487 29.7 501 28.5C515 27.3 529 38.7 542.8 43.2C556.7 47.7 570.3 45.3 584.2 47C598 48.7 612 54.3 626 50.5C640 46.7 654 33.3 668 36.3C682 39.3 696 58.7 709.8 62.3C723.7 66 737.3 54 751.2 48.5C765 43 779 44 793 50C807 56 821 67 835 62.2C849 57.3 863 36.7 876.8 33.8C890.7 31 904.3 46 918.2 48.5C932 51 946 41 953 36L960 31L960 101L953 101C946 101 932 101 918.2 101C904.3 101 890.7 101 876.8 101C863 101 849 101 835 101C821 101 807 101 793 101C779 101 765 101 751.2 101C737.3 101 723.7 101 709.8 101C696 101 682 101 668 101C654 101 640 101 626 101C612 101 598 101 584.2 101C570.3 101 556.7 101 542.8 101C529 101 515 101 501 101C487 101 473 101 459 101C445 101 431 101 417.2 101C403.3 101 389.7 101 375.8 101C362 101 348 101 334 101C320 101 306 101 292 101C278 101 264 101 250.2 101C236.3 101 222.7 101 208.8 101C195 101 181 101 167 101C153 101 139 101 125 101C111 101 97 101 83.2 101C69.3 101 55.7 101 41.8 101C28 101 14 101 7 101L0 101Z" fill="#ff7958"></path><path d="M0 55L7 57C14 59 28 63 41.8 67.3C55.7 71.7 69.3 76.3 83.2 76C97 75.7 111 70.3 125 69.3C139 68.3 153 71.7 167 73.2C181 74.7 195 74.3 208.8 72.7C222.7 71 236.3 68 250.2 66.7C264 65.3 278 65.7 292 62C306 58.3 320 50.7 334 48.8C348 47 362 51 375.8 50C389.7 49 403.3 43 417.2 45.5C431 48 445 59 459 62.3C473 65.7 487 61.3 501 60.3C515 59.3 529 61.7 542.8 59.2C556.7 56.7 570.3 49.3 584.2 49.5C598 49.7 612 57.3 626 58C640 58.7 654 52.3 668 53C682 53.7 696 61.3 709.8 67.5C723.7 73.7 737.3 78.3 751.2 74.7C765 71 779 59 793 52.3C807 45.7 821 44.3 835 44.5C849 44.7 863 46.3 876.8 46.7C890.7 47 904.3 46 918.2 48.2C932 50.3 946 55.7 953 58.3L960 61L960 101L953 101C946 101 932 101 918.2 101C904.3 101 890.7 101 876.8 101C863 101 849 101 835 101C821 101 807 101 793 101C779 101 765 101 751.2 101C737.3 101 723.7 101 709.8 101C696 101 682 101 668 101C654 101 640 101 626 101C612 101 598 101 584.2 101C570.3 101 556.7 101 542.8 101C529 101 515 101 501 101C487 101 473 101 459 101C445 101 431 101 417.2 101C403.3 101 389.7 101 375.8 101C362 101 348 101 334 101C320 101 306 101 292 101C278 101 264 101 250.2 101C236.3 101 222.7 101 208.8 101C195 101 181 101 167 101C153 101 139 101 125 101C111 101 97 101 83.2 101C69.3 101 55.7 101 41.8 101C28 101 14 101 7 101L0 101Z" fill="#ff4a88"></path><path d="M0 65L7 62.5C14 60 28 55 41.8 59.3C55.7 63.7 69.3 77.3 83.2 83.7C97 90 111 89 125 86.3C139 83.7 153 79.3 167 73.2C181 67 195 59 208.8 60.2C222.7 61.3 236.3 71.7 250.2 74.5C264 77.3 278 72.7 292 68C306 63.3 320 58.7 334 60.7C348 62.7 362 71.3 375.8 77.3C389.7 83.3 403.3 86.7 417.2 82.2C431 77.7 445 65.3 459 63.5C473 61.7 487 70.3 501 76.5C515 82.7 529 86.3 542.8 83.3C556.7 80.3 570.3 70.7 584.2 64.3C598 58 612 55 626 58.7C640 62.3 654 72.7 668 79C682 85.3 696 87.7 709.8 83.2C723.7 78.7 737.3 67.3 751.2 67.3C765 67.3 779 78.7 793 84.3C807 90 821 90 835 85.3C849 80.7 863 71.3 876.8 69.3C890.7 67.3 904.3 72.7 918.2 72.5C932 72.3 946 66.7 953 63.8L960 61L960 101L953 101C946 101 932 101 918.2 101C904.3 101 890.7 101 876.8 101C863 101 849 101 835 101C821 101 807 101 793 101C779 101 765 101 751.2 101C737.3 101 723.7 101 709.8 101C696 101 682 101 668 101C654 101 640 101 626 101C612 101 598 101 584.2 101C570.3 101 556.7 101 542.8 101C529 101 515 101 501 101C487 101 473 101 459 101C445 101 431 101 417.2 101C403.3 101 389.7 101 375.8 101C362 101 348 101 334 101C320 101 306 101 292 101C278 101 264 101 250.2 101C236.3 101 222.7 101 208.8 101C195 101 181 101 167 101C153 101 139 101 125 101C111 101 97 101 83.2 101C69.3 101 55.7 101 41.8 101C28 101 14 101 7 101L0 101Z" fill="#d942c0"></path><path d="M0 67L7 70C14 73 28 79 41.8 81.5C55.7 84 69.3 83 83.2 84.7C97 86.3 111 90.7 125 91C139 91.3 153 87.7 167 88.2C181 88.7 195 93.3 208.8 95C222.7 96.7 236.3 95.3 250.2 90C264 84.7 278 75.3 292 71.5C306 67.7 320 69.3 334 72.2C348 75 362 79 375.8 80.5C389.7 82 403.3 81 417.2 83.2C431 85.3 445 90.7 459 92.2C473 93.7 487 91.3 501 86.3C515 81.3 529 73.7 542.8 70.7C556.7 67.7 570.3 69.3 584.2 73.7C598 78 612 85 626 86.3C640 87.7 654 83.3 668 80.3C682 77.3 696 75.7 709.8 76.7C723.7 77.7 737.3 81.3 751.2 81.3C765 81.3 779 77.7 793 77.3C807 77 821 80 835 82.7C849 85.3 863 87.7 876.8 86C890.7 84.3 904.3 78.7 918.2 76C932 73.3 946 73.7 953 73.8L960 74L960 101L953 101C946 101 932 101 918.2 101C904.3 101 890.7 101 876.8 101C863 101 849 101 835 101C821 101 807 101 793 101C779 101 765 101 751.2 101C737.3 101 723.7 101 709.8 101C696 101 682 101 668 101C654 101 640 101 626 101C612 101 598 101 584.2 101C570.3 101 556.7 101 542.8 101C529 101 515 101 501 101C487 101 473 101 459 101C445 101 431 101 417.2 101C403.3 101 389.7 101 375.8 101C362 101 348 101 334 101C320 101 306 101 292 101C278 101 264 101 250.2 101C236.3 101 222.7 101 208.8 101C195 101 181 101 167 101C153 101 139 101 125 101C111 101 97 101 83.2 101C69.3 101 55.7 101 41.8 101C28 101 14 101 7 101L0 101Z" fill="#715df2"></path></svg>